<svg width="27" height="23" viewBox="0 0 27 23" fill="none" xmlns="http://www.w3.org/2000/svg">
<path d="M10.4019 0.0019362C13.2482 -0.0387022 16.054 0.553931 18.1851 2.38963C19.1259 3.20021 19.8212 4.15268 20.312 5.19432C21.3634 5.1316 22.4415 5.43571 23.3355 6.13182L23.3364 6.1328C25.5396 7.84979 26.6249 10.2246 26.6646 12.959C26.6908 14.7693 26.3713 16.5488 25.5513 18.1123C25.139 18.8144 24.6184 19.4685 23.9751 20.0556C21.898 21.9516 19.1107 22.6243 16.2642 22.665C13.4177 22.7057 10.6121 22.1131 8.48097 20.2773C7.53992 19.4667 6.84493 18.5134 6.35402 17.4717C5.30258 17.5344 4.22465 17.2303 3.33058 16.5342L3.3296 16.5332C1.12641 14.8161 0.0410658 12.4414 0.00147784 9.70701C-0.0246894 7.89674 0.294694 6.11712 1.11476 4.55369C1.52705 3.85158 2.04765 3.19751 2.69093 2.61033C4.768 0.714657 7.55554 0.0426353 10.4019 0.0019362ZM11.7886 8.84276C11.4653 8.43792 10.8769 8.37411 10.4751 8.69823C9.13692 9.77561 8.4859 11.1946 8.48585 13.0361C8.48585 17.4874 11.0065 19.7451 15.979 19.7451C20.9516 19.7451 23.4722 17.4874 23.4722 13.0361C23.4721 11.2003 22.8221 9.7822 21.4859 8.6992V8.70018C21.084 8.37388 20.4957 8.43862 20.1714 8.8408C19.8471 9.24402 19.9111 9.83472 20.312 10.1592C21.2053 10.8821 21.603 11.7694 21.603 13.0361C21.603 15.4254 20.9348 17.8691 15.979 17.8691C11.0234 17.8691 10.355 15.4263 10.355 13.0361C10.355 11.7666 10.7535 10.8794 11.645 10.1611C12.0476 9.83757 12.1119 9.24684 11.7886 8.84276ZM10.4048 2.86619C5.43222 2.86619 2.91265 5.12297 2.91261 9.5742C2.91261 11.4101 3.56279 12.8281 4.89894 13.9111C5.30079 14.2365 5.88911 14.1737 6.21339 13.7705C6.53762 13.3673 6.47366 12.7756 6.07277 12.4512C5.17955 11.7282 4.78175 10.8409 4.78175 9.5742C4.78177 7.18495 5.45005 4.74119 10.4058 4.74119C15.3614 4.74123 16.0298 7.18403 16.0298 9.5742C16.0298 10.8439 15.6313 11.7309 14.7398 12.4492C14.3371 12.7727 14.2729 13.3634 14.5962 13.7676C14.7802 13.9982 15.0519 14.1181 15.3247 14.1181C15.5302 14.1181 15.7368 14.0508 15.9087 13.9121C17.2469 12.8347 17.898 11.4159 17.898 9.5742C17.8979 5.12299 15.3773 2.86622 10.4048 2.86619Z" fill="#2C46B1"/>
</svg>
